<?xml version="1.0" standalone="no"?>
<!DOCTYPE svg PUBLIC "-//W3C//DTD SVG 20010904//EN"
 "http://www.w3.org/TR/2001/REC-SVG-20010904/DTD/svg10.dtd">
<svg version="1.0" xmlns="http://www.w3.org/2000/svg"
 width="141.000000pt" height="141.000000pt" viewBox="0 0 141.000000 141.000000"
 preserveAspectRatio="xMidYMid meet">
<metadata>
Created by potrace 1.14, written by Peter Selinger 2001-2017
</metadata>
<g transform="translate(0.000000,141.000000) scale(0.100000,-0.100000)"
fill="#000000" stroke="none">
<path d="M609 1406 c-2 -2 -20 -7 -39 -10 -121 -19 -260 -94 -361 -195 -85
-85 -138 -172 -177 -289 -23 -67 -26 -94 -26 -207 1 -149 21 -229 89 -352 49
-88 169 -208 256 -257 125 -69 198 -88 339 -90 150 -1 203 10 330 72 80 39
109 60 180 131 148 149 212 310 206 516 -8 234 -108 420 -300 559 -51 37 -165
89 -231 106 -48 12 -257 25 -266 16z"/>
</g>
</svg>
